<svg xmlns="http://www.w3.org/2000/svg" xmlns:xlink="http://www.w3.org/1999/xlink" width="200" zoomAndPan="magnify" viewBox="0 0 150 37.5" height="50" preserveAspectRatio="xMidYMid meet" version="1.0"><defs><g/><clipPath id="3e6fb4f12f"><path d="M 6.660156 5.929688 L 36.378906 5.929688 L 36.378906 31.078125 L 6.660156 31.078125 Z M 6.660156 5.929688 " clip-rule="nonzero"/></clipPath><clipPath id="7c818aff32"><path d="M 12.582031 5.929688 L 30.457031 5.929688 C 33.726562 5.929688 36.378906 8.578125 36.378906 11.847656 L 36.378906 25.15625 C 36.378906 28.425781 33.726562 31.078125 30.457031 31.078125 L 12.582031 31.078125 C 9.308594 31.078125 6.660156 28.425781 6.660156 25.15625 L 6.660156 11.847656 C 6.660156 8.578125 9.308594 5.929688 12.582031 5.929688 Z M 12.582031 5.929688 " clip-rule="nonzero"/></clipPath><linearGradient x1="-0.00000160221" gradientTransform="matrix(0.0982427, 0, 0, 0.0982427, 6.65932, 5.928217)" y1="0" x2="302.499992" gradientUnits="userSpaceOnUse" y2="0" id="88c82f0241"><stop stop-opacity="1" stop-color="rgb(11.399841%, 25.498962%, 44.699097%)" offset="0"/><stop stop-opacity="1" stop-color="rgb(11.526489%, 25.4776%, 44.723511%)" offset="0.0078125"/><stop stop-opacity="1" stop-color="rgb(11.779785%, 25.434875%, 44.772339%)" offset="0.015625"/><stop stop-opacity="1" stop-color="rgb(12.033081%, 25.392151%, 44.822693%)" offset="0.0234375"/><stop stop-opacity="1" stop-color="rgb(12.287903%, 25.349426%, 44.871521%)" offset="0.03125"/><stop stop-opacity="1" stop-color="rgb(12.541199%, 25.305176%, 44.920349%)" offset="0.0390625"/><stop stop-opacity="1" stop-color="rgb(12.796021%, 25.262451%, 44.969177%)" offset="0.046875"/><stop stop-opacity="1" stop-color="rgb(13.049316%, 25.219727%, 45.019531%)" offset="0.0546875"/><stop stop-opacity="1" stop-color="rgb(13.302612%, 25.177002%, 45.068359%)" offset="0.0625"/><stop stop-opacity="1" stop-color="rgb(13.557434%, 25.134277%, 45.117188%)" offset="0.0703125"/><stop stop-opacity="1" stop-color="rgb(13.81073%, 25.091553%, 45.166016%)" offset="0.078125"/><stop stop-opacity="1" stop-color="rgb(14.065552%, 25.047302%, 45.21637%)" offset="0.0859375"/><stop stop-opacity="1" stop-color="rgb(14.318848%, 25.004578%, 45.265198%)" offset="0.09375"/><stop stop-opacity="1" stop-color="rgb(14.572144%, 24.961853%, 45.314026%)" offset="0.101562"/><stop stop-opacity="1" stop-color="rgb(14.826965%, 24.919128%, 45.362854%)" offset="0.109375"/><stop stop-opacity="1" stop-color="rgb(15.080261%, 24.876404%, 45.413208%)" offset="0.117187"/><stop stop-opacity="1" stop-color="rgb(15.335083%, 24.833679%, 45.462036%)" offset="0.125"/><stop stop-opacity="1" stop-color="rgb(15.588379%, 24.789429%, 45.510864%)" offset="0.132812"/><stop stop-opacity="1" stop-color="rgb(15.841675%, 24.746704%, 45.559692%)" offset="0.140625"/><stop stop-opacity="1" stop-color="rgb(16.096497%, 24.703979%, 45.610046%)" offset="0.148438"/><stop stop-opacity="1" stop-color="rgb(16.349792%, 24.661255%, 45.658875%)" offset="0.15625"/><stop stop-opacity="1" stop-color="rgb(16.604614%, 24.61853%, 45.707703%)" offset="0.164062"/><stop stop-opacity="1" stop-color="rgb(16.85791%, 24.575806%, 45.756531%)" offset="0.171875"/><stop stop-opacity="1" stop-color="rgb(17.111206%, 24.533081%, 45.806885%)" offset="0.179687"/><stop stop-opacity="1" stop-color="rgb(17.366028%, 24.488831%, 45.855713%)" offset="0.1875"/><stop stop-opacity="1" stop-color="rgb(17.619324%, 24.446106%, 45.904541%)" offset="0.195313"/><stop stop-opacity="1" stop-color="rgb(17.874146%, 24.403381%, 45.953369%)" offset="0.203125"/><stop stop-opacity="1" stop-color="rgb(18.127441%, 24.360657%, 46.003723%)" offset="0.210938"/><stop stop-opacity="1" stop-color="rgb(18.380737%, 24.317932%, 46.052551%)" offset="0.21875"/><stop stop-opacity="1" stop-color="rgb(18.635559%, 24.275208%, 46.101379%)" offset="0.226562"/><stop stop-opacity="1" stop-color="rgb(18.888855%, 24.230957%, 46.151733%)" offset="0.234375"/><stop stop-opacity="1" stop-color="rgb(19.143677%, 24.188232%, 46.200562%)" offset="0.242187"/><stop stop-opacity="1" stop-color="rgb(19.396973%, 24.145508%, 46.24939%)" offset="0.25"/><stop stop-opacity="1" stop-color="rgb(19.650269%, 24.102783%, 46.298218%)" offset="0.257812"/><stop stop-opacity="1" stop-color="rgb(19.90509%, 24.060059%, 46.348572%)" offset="0.265625"/><stop stop-opacity="1" stop-color="rgb(20.158386%, 24.017334%, 46.3974%)" offset="0.273438"/><stop stop-opacity="1" stop-color="rgb(20.413208%, 23.973083%, 46.446228%)" offset="0.28125"/><stop stop-opacity="1" stop-color="rgb(20.666504%, 23.930359%, 46.495056%)" offset="0.289062"/><stop stop-opacity="1" stop-color="rgb(20.9198%, 23.887634%, 46.54541%)" offset="0.296875"/><stop stop-opacity="1" stop-color="rgb(21.174622%, 23.84491%, 46.594238%)" offset="0.304688"/><stop stop-opacity="1" stop-color="rgb(21.427917%, 23.802185%, 46.643066%)" offset="0.3125"/><stop stop-opacity="1" stop-color="rgb(21.682739%, 23.75946%, 46.691895%)" offset="0.320312"/><stop stop-opacity="1" stop-color="rgb(21.936035%, 23.71521%, 46.742249%)" offset="0.328125"/><stop stop-opacity="1" stop-color="rgb(22.189331%, 23.672485%, 46.791077%)" offset="0.335937"/><stop stop-opacity="1" stop-color="rgb(22.444153%, 23.629761%, 46.839905%)" offset="0.34375"/><stop stop-opacity="1" stop-color="rgb(22.697449%, 23.587036%, 46.888733%)" offset="0.351562"/><stop stop-opacity="1" stop-color="rgb(22.952271%, 23.544312%, 46.939087%)" offset="0.359375"/><stop stop-opacity="1" stop-color="rgb(23.205566%, 23.501587%, 46.987915%)" offset="0.367187"/><stop stop-opacity="1" stop-color="rgb(23.458862%, 23.458862%, 47.036743%)" offset="0.375"/><stop stop-opacity="1" stop-color="rgb(23.713684%, 23.414612%, 47.085571%)" offset="0.382813"/><stop stop-opacity="1" stop-color="rgb(23.96698%, 23.371887%, 47.135925%)" offset="0.390625"/><stop stop-opacity="1" stop-color="rgb(24.221802%, 23.329163%, 47.184753%)" offset="0.398438"/><stop stop-opacity="1" stop-color="rgb(24.475098%, 23.286438%, 47.233582%)" offset="0.40625"/><stop stop-opacity="1" stop-color="rgb(24.728394%, 23.243713%, 47.28241%)" offset="0.414062"/><stop stop-opacity="1" stop-color="rgb(24.983215%, 23.200989%, 47.332764%)" offset="0.421875"/><stop stop-opacity="1" stop-color="rgb(25.236511%, 23.156738%, 47.381592%)" offset="0.429688"/><stop stop-opacity="1" stop-color="rgb(25.491333%, 23.114014%, 47.43042%)" offset="0.4375"/><stop stop-opacity="1" stop-color="rgb(25.744629%, 23.071289%, 47.479248%)" offset="0.445312"/><stop stop-opacity="1" stop-color="rgb(25.997925%, 23.028564%, 47.529602%)" offset="0.453125"/><stop stop-opacity="1" stop-color="rgb(26.252747%, 22.98584%, 47.57843%)" offset="0.460938"/><stop stop-opacity="1" stop-color="rgb(26.506042%, 22.943115%, 47.627258%)" offset="0.46875"/><stop stop-opacity="1" stop-color="rgb(26.760864%, 22.898865%, 47.676086%)" offset="0.476562"/><stop stop-opacity="1" stop-color="rgb(27.01416%, 22.85614%, 47.72644%)" offset="0.484375"/><stop stop-opacity="1" stop-color="rgb(27.267456%, 22.813416%, 47.775269%)" offset="0.492187"/><stop stop-opacity="1" stop-color="rgb(27.522278%, 22.770691%, 47.824097%)" offset="0.5"/><stop stop-opacity="1" stop-color="rgb(27.775574%, 22.727966%, 47.872925%)" offset="0.507812"/><stop stop-opacity="1" stop-color="rgb(28.030396%, 22.685242%, 47.923279%)" offset="0.515625"/><stop stop-opacity="1" stop-color="rgb(28.283691%, 22.640991%, 47.972107%)" offset="0.523438"/><stop stop-opacity="1" stop-color="rgb(28.536987%, 22.598267%, 48.020935%)" offset="0.53125"/><stop stop-opacity="1" stop-color="rgb(28.791809%, 22.555542%, 48.069763%)" offset="0.539062"/><stop stop-opacity="1" stop-color="rgb(29.045105%, 22.512817%, 48.120117%)" offset="0.546875"/><stop stop-opacity="1" stop-color="rgb(29.299927%, 22.470093%, 48.168945%)" offset="0.554688"/><stop stop-opacity="1" stop-color="rgb(29.553223%, 22.427368%, 48.217773%)" offset="0.5625"/><stop stop-opacity="1" stop-color="rgb(29.806519%, 22.384644%, 48.268127%)" offset="0.570312"/><stop stop-opacity="1" stop-color="rgb(30.06134%, 22.340393%, 48.316956%)" offset="0.578125"/><stop stop-opacity="1" stop-color="rgb(30.314636%, 22.297668%, 48.365784%)" offset="0.585938"/><stop stop-opacity="1" stop-color="rgb(30.569458%, 22.254944%, 48.414612%)" offset="0.59375"/><stop stop-opacity="1" stop-color="rgb(30.822754%, 22.212219%, 48.464966%)" offset="0.601562"/><stop stop-opacity="1" stop-color="rgb(31.07605%, 22.169495%, 48.513794%)" offset="0.609375"/><stop stop-opacity="1" stop-color="rgb(31.330872%, 22.12677%, 48.562622%)" offset="0.617188"/><stop stop-opacity="1" stop-color="rgb(31.584167%, 22.08252%, 48.61145%)" offset="0.625"/><stop stop-opacity="1" stop-color="rgb(31.838989%, 22.039795%, 48.661804%)" offset="0.632813"/><stop stop-opacity="1" stop-color="rgb(32.092285%, 21.99707%, 48.710632%)" offset="0.640625"/><stop stop-opacity="1" stop-color="rgb(32.345581%, 21.954346%, 48.75946%)" offset="0.648438"/><stop stop-opacity="1" stop-color="rgb(32.600403%, 21.911621%, 48.808289%)" offset="0.65625"/><stop stop-opacity="1" stop-color="rgb(32.853699%, 21.868896%, 48.858643%)" offset="0.664062"/><stop stop-opacity="1" stop-color="rgb(33.108521%, 21.824646%, 48.907471%)" offset="0.671875"/><stop stop-opacity="1" stop-color="rgb(33.361816%, 21.781921%, 48.956299%)" offset="0.679688"/><stop stop-opacity="1" stop-color="rgb(33.615112%, 21.739197%, 49.005127%)" offset="0.6875"/><stop stop-opacity="1" stop-color="rgb(33.869934%, 21.696472%, 49.055481%)" offset="0.695312"/><stop stop-opacity="1" stop-color="rgb(34.12323%, 21.653748%, 49.104309%)" offset="0.703125"/><stop stop-opacity="1" stop-color="rgb(34.378052%, 21.611023%, 49.153137%)" offset="0.710938"/><stop stop-opacity="1" stop-color="rgb(34.631348%, 21.566772%, 49.201965%)" offset="0.71875"/><stop stop-opacity="1" stop-color="rgb(34.884644%, 21.524048%, 49.252319%)" offset="0.726562"/><stop stop-opacity="1" stop-color="rgb(35.139465%, 21.481323%, 49.301147%)" offset="0.734375"/><stop stop-opacity="1" stop-color="rgb(35.392761%, 21.438599%, 49.349976%)" offset="0.742188"/><stop stop-opacity="1" stop-color="rgb(35.647583%, 21.395874%, 49.398804%)" offset="0.75"/><stop stop-opacity="1" stop-color="rgb(35.900879%, 21.353149%, 49.449158%)" offset="0.757812"/><stop stop-opacity="1" stop-color="rgb(36.154175%, 21.310425%, 49.497986%)" offset="0.765625"/><stop stop-opacity="1" stop-color="rgb(36.408997%, 21.266174%, 49.546814%)" offset="0.773438"/><stop stop-opacity="1" stop-color="rgb(36.662292%, 21.22345%, 49.595642%)" offset="0.78125"/><stop stop-opacity="1" stop-color="rgb(36.917114%, 21.180725%, 49.645996%)" offset="0.789062"/><stop stop-opacity="1" stop-color="rgb(37.17041%, 21.138%, 49.694824%)" offset="0.796875"/><stop stop-opacity="1" stop-color="rgb(37.423706%, 21.095276%, 49.743652%)" offset="0.804687"/><stop stop-opacity="1" stop-color="rgb(37.678528%, 21.052551%, 49.79248%)" offset="0.8125"/><stop stop-opacity="1" stop-color="rgb(37.931824%, 21.008301%, 49.842834%)" offset="0.820312"/><stop stop-opacity="1" stop-color="rgb(38.186646%, 20.965576%, 49.891663%)" offset="0.828125"/><stop stop-opacity="1" stop-color="rgb(38.439941%, 20.922852%, 49.940491%)" offset="0.835937"/><stop stop-opacity="1" stop-color="rgb(38.693237%, 20.880127%, 49.989319%)" offset="0.84375"/><stop stop-opacity="1" stop-color="rgb(38.948059%, 20.837402%, 50.039673%)" offset="0.851562"/><stop stop-opacity="1" stop-color="rgb(39.201355%, 20.794678%, 50.088501%)" offset="0.859375"/><stop stop-opacity="1" stop-color="rgb(39.456177%, 20.750427%, 50.137329%)" offset="0.867187"/><stop stop-opacity="1" stop-color="rgb(39.709473%, 20.707703%, 50.187683%)" offset="0.875"/><stop stop-opacity="1" stop-color="rgb(39.962769%, 20.664978%, 50.236511%)" offset="0.882813"/><stop stop-opacity="1" stop-color="rgb(40.21759%, 20.622253%, 50.285339%)" offset="0.890625"/><stop stop-opacity="1" stop-color="rgb(40.470886%, 20.579529%, 50.334167%)" offset="0.898438"/><stop stop-opacity="1" stop-color="rgb(40.725708%, 20.536804%, 50.384521%)" offset="0.90625"/><stop stop-opacity="1" stop-color="rgb(40.979004%, 20.492554%, 50.43335%)" offset="0.914063"/><stop stop-opacity="1" stop-color="rgb(41.2323%, 20.449829%, 50.482178%)" offset="0.921875"/><stop stop-opacity="1" stop-color="rgb(41.487122%, 20.407104%, 50.531006%)" offset="0.929688"/><stop stop-opacity="1" stop-color="rgb(41.740417%, 20.36438%, 50.58136%)" offset="0.9375"/><stop stop-opacity="1" stop-color="rgb(41.995239%, 20.321655%, 50.630188%)" offset="0.945312"/><stop stop-opacity="1" stop-color="rgb(42.248535%, 20.278931%, 50.679016%)" offset="0.953125"/><stop stop-opacity="1" stop-color="rgb(42.501831%, 20.236206%, 50.727844%)" offset="0.960938"/><stop stop-opacity="1" stop-color="rgb(42.756653%, 20.191956%, 50.778198%)" offset="0.96875"/><stop stop-opacity="1" stop-color="rgb(43.009949%, 20.149231%, 50.827026%)" offset="0.976562"/><stop stop-opacity="1" stop-color="rgb(43.264771%, 20.106506%, 50.875854%)" offset="0.984375"/><stop stop-opacity="1" stop-color="rgb(43.518066%, 20.063782%, 50.924683%)" offset="0.992188"/><stop stop-opacity="1" stop-color="rgb(43.771362%, 20.021057%, 50.975037%)" offset="1"/></linearGradient></defs><g clip-path="url(#3e6fb4f12f)"><g clip-path="url(#7c818aff32)"><path fill="url(#88c82f0241)" d="M 6.660156 5.929688 L 6.660156 31.078125 L 36.378906 31.078125 L 36.378906 5.929688 Z M 6.660156 5.929688 " fill-rule="nonzero"/></g></g><g fill="#a54da9" fill-opacity="1"><g transform="translate(39.441388, 17.612989)"><g><path d="M 4.953125 -1.5625 L 2.21875 -1.5625 L 1.703125 0 L 0.03125 0 L 2.859375 -7.578125 L 4.296875 -7.578125 L 7.140625 0 L 5.484375 0 Z M 2.640625 -2.828125 L 4.53125 -2.828125 L 3.578125 -5.65625 Z M 2.640625 -2.828125 "/></g></g></g><g fill="#a54da9" fill-opacity="1"><g transform="translate(46.610251, 17.612989)"><g><path d="M 6.40625 -7.578125 L 6.40625 -2.59375 C 6.40625 -1.757812 6.144531 -1.097656 5.625 -0.609375 C 5.113281 -0.128906 4.40625 0.109375 3.5 0.109375 C 2.625 0.109375 1.925781 -0.125 1.40625 -0.59375 C 0.882812 -1.0625 0.617188 -1.707031 0.609375 -2.53125 L 0.609375 -7.578125 L 2.171875 -7.578125 L 2.171875 -2.578125 C 2.171875 -2.078125 2.285156 -1.710938 2.515625 -1.484375 C 2.753906 -1.265625 3.082031 -1.15625 3.5 -1.15625 C 4.382812 -1.15625 4.832031 -1.613281 4.84375 -2.53125 L 4.84375 -7.578125 Z M 6.40625 -7.578125 "/></g></g></g><g fill="#a54da9" fill-opacity="1"><g transform="translate(53.623043, 17.612989)"><g><path d="M 3.484375 -2.765625 L 2.234375 -2.765625 L 2.234375 0 L 0.671875 0 L 0.671875 -7.578125 L 3.484375 -7.578125 C 4.378906 -7.578125 5.070312 -7.375 5.5625 -6.96875 C 6.050781 -6.570312 6.296875 -6.007812 6.296875 -5.28125 C 6.296875 -4.769531 6.179688 -4.335938 5.953125 -3.984375 C 5.734375 -3.640625 5.394531 -3.367188 4.9375 -3.171875 L 6.578125 -0.078125 L 6.578125 0 L 4.90625 0 Z M 2.234375 -4.03125 L 3.5 -4.03125 C 3.882812 -4.03125 4.1875 -4.128906 4.40625 -4.328125 C 4.625 -4.535156 4.734375 -4.8125 4.734375 -5.15625 C 4.734375 -5.519531 4.628906 -5.800781 4.421875 -6 C 4.222656 -6.207031 3.910156 -6.3125 3.484375 -6.3125 L 2.234375 -6.3125 Z M 2.234375 -4.03125 "/></g></g></g><g fill="#a54da9" fill-opacity="1"><g transform="translate(60.422541, 17.612989)"><g><path d="M 5.234375 -3.28125 L 2.234375 -3.28125 L 2.234375 -1.25 L 5.75 -1.25 L 5.75 0 L 0.671875 0 L 0.671875 -7.578125 L 5.75 -7.578125 L 5.75 -6.3125 L 2.234375 -6.3125 L 2.234375 -4.5 L 5.234375 -4.5 Z M 5.234375 -3.28125 "/></g></g></g><g fill="#a54da9" fill-opacity="1"><g transform="translate(66.415668, 17.612989)"><g><path d="M 2.234375 -1.25 L 5.546875 -1.25 L 5.546875 0 L 0.671875 0 L 0.671875 -7.578125 L 2.234375 -7.578125 Z M 2.234375 -1.25 "/></g></g></g><g fill="#a54da9" fill-opacity="1"><g transform="translate(72.185097, 17.612989)"><g><path d="M 2.34375 0 L 0.78125 0 L 0.78125 -7.578125 L 2.34375 -7.578125 Z M 2.34375 0 "/></g></g></g><g fill="#a54da9" fill-opacity="1"><g transform="translate(75.290913, 17.612989)"><g><path d="M 5.234375 -3.28125 L 2.234375 -3.28125 L 2.234375 -1.25 L 5.75 -1.25 L 5.75 0 L 0.671875 0 L 0.671875 -7.578125 L 5.75 -7.578125 L 5.75 -6.3125 L 2.234375 -6.3125 L 2.234375 -4.5 L 5.234375 -4.5 Z M 5.234375 -3.28125 "/></g></g></g><g fill="#a54da9" fill-opacity="1"><g transform="translate(81.284041, 17.612989)"><g/></g></g><g fill="#a54da9" fill-opacity="1"><g transform="translate(83.937248, 17.612989)"><g><path d="M 0.671875 0 L 0.671875 -7.578125 L 3 -7.578125 C 3.664062 -7.578125 4.257812 -7.425781 4.78125 -7.125 C 5.3125 -6.820312 5.722656 -6.394531 6.015625 -5.84375 C 6.316406 -5.289062 6.46875 -4.660156 6.46875 -3.953125 L 6.46875 -3.609375 C 6.46875 -2.910156 6.320312 -2.285156 6.03125 -1.734375 C 5.738281 -1.179688 5.328125 -0.753906 4.796875 -0.453125 C 4.273438 -0.148438 3.679688 0 3.015625 0 Z M 2.234375 -6.3125 L 2.234375 -1.25 L 2.984375 -1.25 C 3.597656 -1.25 4.066406 -1.445312 4.390625 -1.84375 C 4.710938 -2.25 4.878906 -2.820312 4.890625 -3.5625 L 4.890625 -3.96875 C 4.890625 -4.738281 4.726562 -5.320312 4.40625 -5.71875 C 4.082031 -6.113281 3.613281 -6.3125 3 -6.3125 Z M 2.234375 -6.3125 "/></g></g></g><g fill="#a54da9" fill-opacity="1"><g transform="translate(90.861603, 17.612989)"><g><path d="M 5.234375 -3.28125 L 2.234375 -3.28125 L 2.234375 -1.25 L 5.75 -1.25 L 5.75 0 L 0.671875 0 L 0.671875 -7.578125 L 5.75 -7.578125 L 5.75 -6.3125 L 2.234375 -6.3125 L 2.234375 -4.5 L 5.234375 -4.5 Z M 5.234375 -3.28125 "/></g></g></g><g fill="#a54da9" fill-opacity="1"><g transform="translate(96.85473, 17.612989)"><g><path d="M 2.71875 -7.578125 L 4.65625 -2.078125 L 6.59375 -7.578125 L 8.640625 -7.578125 L 8.640625 0 L 7.078125 0 L 7.078125 -2.078125 L 7.234375 -5.640625 L 5.1875 0 L 4.125 0 L 2.078125 -5.640625 L 2.234375 -2.078125 L 2.234375 0 L 0.671875 0 L 0.671875 -7.578125 Z M 2.71875 -7.578125 "/></g></g></g><g fill="#a54da9" fill-opacity="1"><g transform="translate(106.187778, 17.612989)"><g><path d="M 5.234375 -3.28125 L 2.234375 -3.28125 L 2.234375 -1.25 L 5.75 -1.25 L 5.75 0 L 0.671875 0 L 0.671875 -7.578125 L 5.75 -7.578125 L 5.75 -6.3125 L 2.234375 -6.3125 L 2.234375 -4.5 L 5.234375 -4.5 Z M 5.234375 -3.28125 "/></g></g></g><g fill="#a54da9" fill-opacity="1"><g transform="translate(112.180905, 17.612989)"><g><path d="M 6.375 -6.3125 L 4.0625 -6.3125 L 4.0625 0 L 2.5 0 L 2.5 -6.3125 L 0.203125 -6.3125 L 0.203125 -7.578125 L 6.375 -7.578125 Z M 6.375 -6.3125 "/></g></g></g><g fill="#a54da9" fill-opacity="1"><g transform="translate(118.772308, 17.612989)"><g><path d="M 3.484375 -2.765625 L 2.234375 -2.765625 L 2.234375 0 L 0.671875 0 L 0.671875 -7.578125 L 3.484375 -7.578125 C 4.378906 -7.578125 5.070312 -7.375 5.5625 -6.96875 C 6.050781 -6.570312 6.296875 -6.007812 6.296875 -5.28125 C 6.296875 -4.769531 6.179688 -4.335938 5.953125 -3.984375 C 5.734375 -3.640625 5.394531 -3.367188 4.9375 -3.171875 L 6.578125 -0.078125 L 6.578125 0 L 4.90625 0 Z M 2.234375 -4.03125 L 3.5 -4.03125 C 3.882812 -4.03125 4.1875 -4.128906 4.40625 -4.328125 C 4.625 -4.535156 4.734375 -4.8125 4.734375 -5.15625 C 4.734375 -5.519531 4.628906 -5.800781 4.421875 -6 C 4.222656 -6.207031 3.910156 -6.3125 3.484375 -6.3125 L 2.234375 -6.3125 Z M 2.234375 -4.03125 "/></g></g></g><g fill="#a54da9" fill-opacity="1"><g transform="translate(125.571806, 17.612989)"><g><path d="M 2.34375 0 L 0.78125 0 L 0.78125 -7.578125 L 2.34375 -7.578125 Z M 2.34375 0 "/></g></g></g><g fill="#a54da9" fill-opacity="1"><g transform="translate(128.677622, 17.612989)"><g><path d="M 6.90625 -3.609375 C 6.90625 -2.867188 6.769531 -2.21875 6.5 -1.65625 C 6.238281 -1.09375 5.863281 -0.65625 5.375 -0.34375 C 4.882812 -0.0390625 4.320312 0.109375 3.6875 0.109375 C 3.050781 0.109375 2.488281 -0.0390625 2 -0.34375 C 1.507812 -0.644531 1.128906 -1.078125 0.859375 -1.640625 C 0.585938 -2.203125 0.453125 -2.847656 0.453125 -3.578125 L 0.453125 -3.953125 C 0.453125 -4.691406 0.582031 -5.34375 0.84375 -5.90625 C 1.113281 -6.476562 1.492188 -6.914062 1.984375 -7.21875 C 2.472656 -7.53125 3.035156 -7.6875 3.671875 -7.6875 C 4.304688 -7.6875 4.867188 -7.53125 5.359375 -7.21875 C 5.847656 -6.914062 6.226562 -6.476562 6.5 -5.90625 C 6.769531 -5.34375 6.90625 -4.691406 6.90625 -3.953125 Z M 5.3125 -3.953125 C 5.3125 -4.753906 5.171875 -5.359375 4.890625 -5.765625 C 4.609375 -6.179688 4.203125 -6.390625 3.671875 -6.390625 C 3.148438 -6.390625 2.742188 -6.1875 2.453125 -5.78125 C 2.171875 -5.375 2.03125 -4.773438 2.03125 -3.984375 L 2.03125 -3.609375 C 2.03125 -2.835938 2.171875 -2.238281 2.453125 -1.8125 C 2.734375 -1.382812 3.144531 -1.171875 3.6875 -1.171875 C 4.207031 -1.171875 4.609375 -1.375 4.890625 -1.78125 C 5.171875 -2.195312 5.3125 -2.800781 5.3125 -3.59375 Z M 5.3125 -3.953125 "/></g></g></g><g fill="#a54da9" fill-opacity="1"><g transform="translate(39.441388, 27.225113)"><g><path d="M 3.621094 -0.710938 L 1.3125 -0.710938 L 1.3125 -4.914062 L 0.605469 -4.914062 L 0.605469 0 L 3.621094 0 Z M 3.621094 -0.710938 "/></g></g></g><g fill="#a54da9" fill-opacity="1"><g transform="translate(43.099035, 27.225113)"><g><path d="M 1.234375 -4.941406 L 0.503906 -4.941406 L 0.140625 -3.546875 L 0.710938 -3.546875 Z M 1.234375 -4.941406 "/></g></g></g><g fill="#a54da9" fill-opacity="1"><g transform="translate(44.587369, 27.225113)"><g><path d="M 4.472656 0 L 4.472656 -3.796875 L 3.785156 -3.796875 L 3.789062 -3.292969 C 3.453125 -3.75 2.886719 -3.859375 2.414062 -3.859375 C 1.128906 -3.859375 0.386719 -2.941406 0.386719 -1.917969 C 0.386719 -0.871094 1.101562 0.0625 2.429688 0.0625 C 2.898438 0.0546875 3.511719 -0.0976562 3.785156 -0.511719 L 3.785156 0 Z M 3.785156 -1.902344 C 3.785156 -0.988281 3.046875 -0.546875 2.414062 -0.546875 C 1.574219 -0.546875 1.074219 -1.199219 1.074219 -1.917969 C 1.074219 -2.667969 1.578125 -3.257812 2.414062 -3.257812 C 3.0625 -3.257812 3.785156 -2.808594 3.785156 -1.902344 Z M 3.785156 -1.902344 "/></g></g></g><g fill="#a54da9" fill-opacity="1"><g transform="translate(49.515713, 27.225113)"><g><path d="M 4.332031 -0.140625 L 4.332031 -3.796875 L 3.652344 -3.796875 L 3.652344 -3.292969 C 3.371094 -3.707031 2.835938 -3.859375 2.367188 -3.859375 C 1.046875 -3.859375 0.351562 -2.925781 0.351562 -1.886719 C 0.351562 -0.855469 1.089844 -0.0078125 2.367188 -0.0078125 C 2.835938 -0.0078125 3.3125 -0.105469 3.644531 -0.539062 L 3.644531 -0.140625 C 3.644531 0.605469 2.957031 0.882812 2.335938 0.882812 C 1.847656 0.882812 1.214844 0.730469 1.214844 0.253906 L 0.535156 0.253906 C 0.535156 1.117188 1.425781 1.496094 2.378906 1.496094 C 3.320312 1.496094 4.332031 1.039062 4.332031 -0.140625 Z M 2.359375 -0.609375 C 1.523438 -0.609375 1.046875 -1.222656 1.039062 -1.886719 C 1.039062 -2.570312 1.523438 -3.257812 2.371094 -3.257812 C 3.214844 -3.257812 3.644531 -2.683594 3.644531 -1.992188 C 3.644531 -1.292969 3.214844 -0.609375 2.359375 -0.609375 Z M 2.359375 -0.609375 "/></g></g></g><g fill="#a54da9" fill-opacity="1"><g transform="translate(54.387897, 27.225113)"><g><path d="M 4.253906 -2.0625 C 4.175781 -3.257812 3.25 -3.855469 2.308594 -3.855469 C 1.304688 -3.855469 0.335938 -3.203125 0.335938 -1.894531 C 0.335938 -0.589844 1.320312 0.0703125 2.296875 0.0703125 C 3.074219 0.0703125 3.855469 -0.34375 4.140625 -1.171875 L 3.433594 -1.171875 C 3.207031 -0.746094 2.773438 -0.539062 2.300781 -0.539062 C 1.734375 -0.539062 1.023438 -0.988281 1.023438 -1.734375 L 4.242188 -1.734375 C 4.253906 -1.796875 4.261719 -1.867188 4.261719 -1.945312 C 4.261719 -1.988281 4.261719 -2.023438 4.253906 -2.0625 Z M 3.53125 -2.300781 L 1.054688 -2.300781 C 1.195312 -2.976562 1.753906 -3.25 2.308594 -3.25 C 2.855469 -3.25 3.398438 -2.984375 3.53125 -2.300781 Z M 3.53125 -2.300781 "/></g></g></g><g fill="#a54da9" fill-opacity="1"><g transform="translate(59.021386, 27.225113)"><g><path d="M 1.214844 -3.328125 L 1.214844 -3.796875 L 0.527344 -3.796875 L 0.527344 0 L 1.214844 0 L 1.214844 -2.0625 C 1.214844 -2.722656 1.609375 -3.242188 2.332031 -3.242188 C 3.160156 -3.242188 3.347656 -2.753906 3.347656 -2.035156 L 3.347656 0 L 4.03125 0 L 4.03125 -2.042969 C 4.03125 -3.132812 3.539062 -3.855469 2.378906 -3.855469 C 1.902344 -3.855469 1.496094 -3.734375 1.214844 -3.328125 Z M 1.214844 -3.328125 "/></g></g></g><g fill="#a54da9" fill-opacity="1"><g transform="translate(63.570632, 27.225113)"><g><path d="M 4.246094 -1.445312 L 3.539062 -1.445312 C 3.371094 -0.84375 2.863281 -0.546875 2.34375 -0.546875 C 1.691406 -0.546875 1.046875 -0.988281 1.046875 -1.902344 C 1.046875 -2.808594 1.699219 -3.25 2.335938 -3.25 C 2.855469 -3.25 3.371094 -2.957031 3.539062 -2.351562 L 4.246094 -2.351562 C 4.058594 -3.363281 3.195312 -3.859375 2.332031 -3.859375 C 1.339844 -3.859375 0.359375 -3.214844 0.359375 -1.902344 C 0.359375 -0.597656 1.332031 0.0546875 2.316406 0.0546875 C 3.179688 0.0546875 4.058594 -0.429688 4.246094 -1.445312 Z M 4.246094 -1.445312 "/></g></g></g><g fill="#a54da9" fill-opacity="1"><g transform="translate(68.16902, 27.225113)"><g><path d="M 4.253906 -2.0625 C 4.175781 -3.257812 3.25 -3.855469 2.308594 -3.855469 C 1.304688 -3.855469 0.335938 -3.203125 0.335938 -1.894531 C 0.335938 -0.589844 1.320312 0.0703125 2.296875 0.0703125 C 3.074219 0.0703125 3.855469 -0.34375 4.140625 -1.171875 L 3.433594 -1.171875 C 3.207031 -0.746094 2.773438 -0.539062 2.300781 -0.539062 C 1.734375 -0.539062 1.023438 -0.988281 1.023438 -1.734375 L 4.242188 -1.734375 C 4.253906 -1.796875 4.261719 -1.867188 4.261719 -1.945312 C 4.261719 -1.988281 4.261719 -2.023438 4.253906 -2.0625 Z M 3.53125 -2.300781 L 1.054688 -2.300781 C 1.195312 -2.976562 1.753906 -3.25 2.308594 -3.25 C 2.855469 -3.25 3.398438 -2.984375 3.53125 -2.300781 Z M 3.53125 -2.300781 "/></g></g></g><g fill="#a54da9" fill-opacity="1"><g transform="translate(72.802508, 27.225113)"><g/></g></g><g fill="#a54da9" fill-opacity="1"><g transform="translate(74.550597, 27.225113)"><g><path d="M 4.261719 -4.914062 L 3.574219 -4.914062 L 3.574219 -3.304688 C 3.242188 -3.757812 2.765625 -3.859375 2.296875 -3.859375 C 1.011719 -3.859375 0.28125 -3.003906 0.28125 -1.917969 C 0.28125 -0.785156 0.976562 0.0625 2.300781 0.0625 C 2.78125 0.0546875 3.300781 -0.0976562 3.574219 -0.511719 L 3.574219 0 L 4.261719 0 Z M 3.574219 -1.902344 C 3.574219 -0.988281 2.933594 -0.546875 2.289062 -0.546875 C 1.453125 -0.546875 0.96875 -1.125 0.96875 -1.902344 C 0.96875 -2.582031 1.453125 -3.257812 2.296875 -3.257812 C 2.933594 -3.257812 3.574219 -2.808594 3.574219 -1.902344 Z M 3.574219 -1.902344 "/></g></g></g><g fill="#a54da9" fill-opacity="1"><g transform="translate(79.352571, 27.225113)"><g><path d="M 0.484375 -4.773438 C 0.484375 -4.507812 0.703125 -4.375 0.914062 -4.375 C 1.128906 -4.375 1.339844 -4.507812 1.339844 -4.773438 C 1.339844 -5.039062 1.128906 -5.167969 0.917969 -5.167969 C 0.703125 -5.167969 0.484375 -5.035156 0.484375 -4.773438 Z M 0.570312 -3.839844 L 1.257812 -3.839844 L 1.257812 0 L 0.570312 0 Z M 0.570312 -3.839844 "/></g></g></g><g fill="#a54da9" fill-opacity="1"><g transform="translate(81.241071, 27.225113)"><g><path d="M 4.332031 -0.140625 L 4.332031 -3.796875 L 3.652344 -3.796875 L 3.652344 -3.292969 C 3.371094 -3.707031 2.835938 -3.859375 2.367188 -3.859375 C 1.046875 -3.859375 0.351562 -2.925781 0.351562 -1.886719 C 0.351562 -0.855469 1.089844 -0.0078125 2.367188 -0.0078125 C 2.835938 -0.0078125 3.3125 -0.105469 3.644531 -0.539062 L 3.644531 -0.140625 C 3.644531 0.605469 2.957031 0.882812 2.335938 0.882812 C 1.847656 0.882812 1.214844 0.730469 1.214844 0.253906 L 0.535156 0.253906 C 0.535156 1.117188 1.425781 1.496094 2.378906 1.496094 C 3.320312 1.496094 4.332031 1.039062 4.332031 -0.140625 Z M 2.359375 -0.609375 C 1.523438 -0.609375 1.046875 -1.222656 1.039062 -1.886719 C 1.039062 -2.570312 1.523438 -3.257812 2.371094 -3.257812 C 3.214844 -3.257812 3.644531 -2.683594 3.644531 -1.992188 C 3.644531 -1.292969 3.214844 -0.609375 2.359375 -0.609375 Z M 2.359375 -0.609375 "/></g></g></g><g fill="#a54da9" fill-opacity="1"><g transform="translate(86.113255, 27.225113)"><g><path d="M 0.484375 -4.773438 C 0.484375 -4.507812 0.703125 -4.375 0.914062 -4.375 C 1.128906 -4.375 1.339844 -4.507812 1.339844 -4.773438 C 1.339844 -5.039062 1.128906 -5.167969 0.917969 -5.167969 C 0.703125 -5.167969 0.484375 -5.035156 0.484375 -4.773438 Z M 0.570312 -3.839844 L 1.257812 -3.839844 L 1.257812 0 L 0.570312 0 Z M 0.570312 -3.839844 "/></g></g></g><g fill="#a54da9" fill-opacity="1"><g transform="translate(88.001755, 27.225113)"><g><path d="M 1.425781 -3.796875 L 1.425781 -4.640625 L 0.738281 -4.507812 L 0.738281 -3.796875 L 0.167969 -3.796875 L 0.167969 -3.25 L 0.738281 -3.25 L 0.738281 -1.117188 C 0.738281 -0.230469 1.222656 0.0195312 1.964844 0.0195312 C 2.0625 0.0195312 2.167969 0.015625 2.28125 0.0078125 L 2.28125 -0.570312 C 2.175781 -0.5625 2.078125 -0.554688 1.992188 -0.554688 C 1.648438 -0.554688 1.425781 -0.660156 1.425781 -1.109375 L 1.425781 -3.25 L 2.261719 -3.25 L 2.261719 -3.796875 Z M 1.425781 -3.796875 "/></g></g></g><g fill="#a54da9" fill-opacity="1"><g transform="translate(90.416789, 27.225113)"><g><path d="M 4.472656 0 L 4.472656 -3.796875 L 3.785156 -3.796875 L 3.789062 -3.292969 C 3.453125 -3.75 2.886719 -3.859375 2.414062 -3.859375 C 1.128906 -3.859375 0.386719 -2.941406 0.386719 -1.917969 C 0.386719 -0.871094 1.101562 0.0625 2.429688 0.0625 C 2.898438 0.0546875 3.511719 -0.0976562 3.785156 -0.511719 L 3.785156 0 Z M 3.785156 -1.902344 C 3.785156 -0.988281 3.046875 -0.546875 2.414062 -0.546875 C 1.574219 -0.546875 1.074219 -1.199219 1.074219 -1.917969 C 1.074219 -2.667969 1.578125 -3.257812 2.414062 -3.257812 C 3.0625 -3.257812 3.785156 -2.808594 3.785156 -1.902344 Z M 3.785156 -1.902344 "/></g></g></g><g fill="#a54da9" fill-opacity="1"><g transform="translate(95.345132, 27.225113)"><g><path d="M 0.527344 0 L 1.214844 0 L 1.214844 -4.914062 L 0.527344 -4.914062 Z M 0.527344 0 "/></g></g></g><g fill="#a54da9" fill-opacity="1"><g transform="translate(97.086204, 27.225113)"><g><path d="M 4.253906 -2.0625 C 4.175781 -3.257812 3.25 -3.855469 2.308594 -3.855469 C 1.304688 -3.855469 0.335938 -3.203125 0.335938 -1.894531 C 0.335938 -0.589844 1.320312 0.0703125 2.296875 0.0703125 C 3.074219 0.0703125 3.855469 -0.34375 4.140625 -1.171875 L 3.433594 -1.171875 C 3.207031 -0.746094 2.773438 -0.539062 2.300781 -0.539062 C 1.734375 -0.539062 1.023438 -0.988281 1.023438 -1.734375 L 4.242188 -1.734375 C 4.253906 -1.796875 4.261719 -1.867188 4.261719 -1.945312 C 4.261719 -1.988281 4.261719 -2.023438 4.253906 -2.0625 Z M 3.53125 -2.300781 L 1.054688 -2.300781 C 1.195312 -2.976562 1.753906 -3.25 2.308594 -3.25 C 2.855469 -3.25 3.398438 -2.984375 3.53125 -2.300781 Z M 3.53125 -2.300781 "/></g></g></g><g fill="#a54da9" fill-opacity="1"><g transform="translate(9.608294, 23.684211)"><g><path d="M 7.796875 0 L 7.03125 -2.515625 L 3.171875 -2.515625 L 2.40625 0 L 0 0 L 3.734375 -10.609375 L 6.46875 -10.609375 L 10.203125 0 Z M 6.5 -4.390625 C 5.789062 -6.671875 5.390625 -7.957031 5.296875 -8.25 C 5.210938 -8.550781 5.148438 -8.789062 5.109375 -8.96875 C 4.953125 -8.351562 4.5 -6.828125 3.75 -4.390625 Z M 6.5 -4.390625 "/></g></g><g transform="translate(19.821242, 23.684211)"><g><path d="M 3.71875 0.140625 C 2.769531 0.140625 2.023438 -0.222656 1.484375 -0.953125 C 0.941406 -1.691406 0.671875 -2.71875 0.671875 -4.03125 C 0.671875 -5.351562 0.941406 -6.382812 1.484375 -7.125 C 2.035156 -7.863281 2.796875 -8.234375 3.765625 -8.234375 C 4.785156 -8.234375 5.5625 -7.835938 6.09375 -7.046875 L 6.171875 -7.046875 C 6.054688 -7.648438 6 -8.1875 6 -8.65625 L 6 -11.234375 L 8.21875 -11.234375 L 8.21875 0 L 6.53125 0 L 6.09375 -1.046875 L 6 -1.046875 C 5.5 -0.253906 4.738281 0.140625 3.71875 0.140625 Z M 4.484375 -1.609375 C 5.046875 -1.609375 5.457031 -1.769531 5.71875 -2.09375 C 5.988281 -2.425781 6.132812 -2.984375 6.15625 -3.765625 L 6.15625 -4.015625 C 6.15625 -4.878906 6.019531 -5.5 5.75 -5.875 C 5.488281 -6.25 5.054688 -6.4375 4.453125 -6.4375 C 3.960938 -6.4375 3.578125 -6.226562 3.296875 -5.8125 C 3.023438 -5.394531 2.890625 -4.789062 2.890625 -4 C 2.890625 -3.195312 3.023438 -2.597656 3.296875 -2.203125 C 3.578125 -1.804688 3.972656 -1.609375 4.484375 -1.609375 Z M 4.484375 -1.609375 "/></g></g><g transform="translate(29.188532, 23.684211)"><g><path d="M 0.84375 -1.03125 C 0.84375 -1.4375 0.953125 -1.742188 1.171875 -1.953125 C 1.390625 -2.160156 1.703125 -2.265625 2.109375 -2.265625 C 2.515625 -2.265625 2.828125 -2.15625 3.046875 -1.9375 C 3.265625 -1.726562 3.375 -1.425781 3.375 -1.03125 C 3.375 -0.65625 3.257812 -0.359375 3.03125 -0.140625 C 2.8125 0.078125 2.503906 0.1875 2.109375 0.1875 C 1.710938 0.1875 1.398438 0.0820312 1.171875 -0.125 C 0.953125 -0.34375 0.84375 -0.644531 0.84375 -1.03125 Z M 0.84375 -1.03125 "/></g></g></g></svg>